<?xml version="1.0" encoding="utf-8"?>
<!-- Generator: Adobe Illustrator 24.2.3, SVG Export Plug-In . SVG Version: 6.00 Build 0)  -->
<svg version="1.1" id="Layer_2_1_" xmlns="http://www.w3.org/2000/svg" xmlns:xlink="http://www.w3.org/1999/xlink" x="0px" y="0px"
	 viewBox="0 0 907 723.7" style="enable-background:new 0 0 907 723.7;" xml:space="preserve">
<style type="text/css">
	.st0{fill:#FFFFFF;}
	.st1{opacity:0.6;fill:#FFFFFF;enable-background:new    ;}
	.st2{opacity:0.8;fill:#FFFFFF;enable-background:new    ;}
</style>
<g id="RJ_1_">
	<path class="st0" d="M567.1,661c0.5,11.5-1.9,22.9-8.9,33.2c-6.5,9.5-18.2,16.8-29.2,13.7c-11.3-3.2-17.1-15.3-21.9-26
		C483,628,466.9,577.7,428.2,533.2c-21.8-25.1-46.1-48.7-75-65.1s-63.1-25.3-95.9-19.6c-7,1.2-14.6,3-20.9-0.3
		c-5.7-2.9-8.9-9.4-9.9-15.8c-2.8-17.5,7.8-34.8,21.7-45.8c24.9-19.7,57.6-28.2,84-46.2c34.2-23.3,67.9-52.7,86.8-90.1
		c16-31.7,19.8-71.2,2.6-102.2c-12.9-23.2-35.7-39.1-59.5-50.9c-78.7-38.9-194.6-53.1-272-3.9c-13.2,8.4-26.7,21.2-43.1,22.1
		c-16.4,0.9-36.6-11.7-43.1-26.9c-14.6-34.2,14.2-47.1,44.3-57.5c128.6-50.6,269.1-29.3,326.4-7.3c64.7,24.9,123.1,76.6,131.5,144.2
		c7.4,59.5-21.4,128.2-65.9,169.3c-24,22.2-52.3,38-79.3,57.2c-1.1,0.9-2.2,1.9-2.3,3.2c-0.1,1.9,1.7,3.3,3.4,4.2
		c82.4,46.5,135.3,119.4,183.1,199.1C555.4,618,566.2,639.8,567.1,661z"/>
	<path class="st1" d="M96.5,204.9v465.3h61.2c3.1,0,5.6,2.5,5.6,5.6v42.3c0,3.1-2.5,5.6-5.6,5.6h-117c-3.1,0-5.6-2.5-5.6-5.6v-561
		c0-3.1,2.5-5.6,5.6-5.6h116.9c3.1,0,5.6,2.5,5.6,5.6v42.3c0,3.1-2.5,5.6-5.6,5.6L96.5,204.9L96.5,204.9z"/>
	<path class="st2" d="M907,133.1v585c0,3.1-2.5,5.6-5.6,5.6H716.9c-3.1,0-5.6-2.5-5.6-5.6V674c0-3.1,2.5-5.6,5.6-5.6h124.2V182.7
		H738.8c-3.1,0-5.6-2.5-5.6-5.6V133c0-3.1,2.5-5.6,5.6-5.6h162.6C904.5,127.5,907,130,907,133.1z"/>
</g>
</svg>
